<svg width="889" height="596" viewBox="0 0 889 596" fill="none" xmlns="http://www.w3.org/2000/svg">
<g clip-path="url(#clip0_1507_655)">
<path d="M438.457 438.674C362.494 481.449 405.27 586.913 430.345 591.338C449.658 594.746 513.149 592.792 543.92 591.338L782.134 415.074L642.745 395.899C599.97 395.899 499.228 404.454 438.457 438.674Z" fill="white"/>
<path d="M543.92 591.338C542.822 591.393 545.111 591.281 543.92 591.338ZM543.92 591.338C513.149 592.792 449.658 594.746 430.345 591.338C405.27 586.913 362.494 481.449 438.457 438.674C499.228 404.454 599.97 395.899 642.745 395.899L782.134 415.074L543.92 591.338Z" stroke="black" stroke-width="2.91102"/>
<path d="M459.106 453.152C511.616 443.122 554.244 473.965 568.994 490.64C571.457 487.195 574.121 483.789 576.998 480.44C572.464 460.527 484.181 439.14 459.106 453.152Z" fill="#000001"/>
<path d="M538.596 593.52C540.46 593.439 542.239 593.358 543.92 593.278L738.486 449.312C729.915 446.413 707.823 437.494 688.029 425.009C553.733 440.923 532.451 543.98 538.596 593.52Z" fill="#0E1729"/>
<path d="M760.745 593.277C857.357 562.302 782.132 422.176 782.132 417.014L745.993 412.042C561.912 423.405 534.576 537.6 543.918 593.277L574.984 849.191H655.037L661.919 593.277H760.745Z" fill="white" stroke="black" stroke-width="2.91102"/>
<path d="M642.745 540.178C654.545 551.978 660.446 580.495 661.921 593.278H672.983C670.033 578.774 659.855 547.848 642.745 540.178Z" fill="#000001"/>
<rect x="145" y="593" width="796" height="3" fill="black"/>
<path d="M657.714 146.088C653.83 141.143 643.73 125.958 634.407 104.77C636.526 102.297 640.551 94.8104 639.704 84.6398C628.686 82.9447 622.009 59.2134 620.048 47.5596C634.679 39.4435 622.212 17.7929 626.991 16.8366C632.288 15.7766 646.06 21.0738 646.06 34.8464C646.06 48.619 669.657 42.118 675.725 39.0841C690.556 31.6681 685.26 49.6796 678.903 66.63C675.513 72.5628 687.378 83.9341 693.734 88.8781C695.429 105.829 680.315 131.962 672.546 142.909C673.606 174.692 673.818 238.258 666.19 238.258C661.104 228.088 658.421 172.573 657.714 146.088Z" fill="white" stroke="black" stroke-width="1.94068"/>
<path d="M648.177 49.6725C646.411 51.4383 643.939 56.4529 648.177 62.3858" stroke="#241715" stroke-width="0.970341"/>
<path d="M656.652 65.5718C655.946 69.4564 652.838 75.3186 646.058 67.6907" stroke="#241715" stroke-width="0.970341"/>
<path d="M679.96 52.8538C681.372 48.9692 683.138 41.4119 678.9 42.2594" stroke="#241715" stroke-width="0.970341"/>
<path d="M638.572 96.2916C639.506 93.0569 640.075 89.1066 639.702 84.6383C645.573 87.817 655.592 88.8765 676.781 74.0435C677.627 85.0616 651.661 93.4664 638.572 96.2916Z" fill="black"/>
<path d="M692.674 16.8356C700.09 34.846 683.139 59.213 678.901 66.629C685.258 49.6786 689.495 31.6671 675.723 39.0832C669.75 42.2994 646.059 48.6181 646.059 34.8454C646.059 21.0728 632.286 15.7756 626.989 16.8356C622.21 17.7919 634.677 39.4426 620.047 47.5587C618.46 48.4386 616.556 49.1594 614.276 49.6775C619.573 42.2615 617.454 43.3209 613.216 25.3105C608.979 7.30016 628.049 3.06296 646.059 0.944096C664.069 -1.17477 685.258 -1.17477 692.674 16.8356Z" fill="black"/>
<path d="M792.26 131.256C778.699 113.457 720.924 95.5883 693.732 88.8785C695.427 105.829 680.313 131.962 672.544 142.91C673.604 174.693 673.815 238.259 666.188 238.259C661.102 228.088 658.418 172.574 657.712 146.088C653.827 141.144 643.728 125.959 634.405 104.77C632.286 111.127 575.076 154.563 565.541 168.336C556.006 182.109 552.828 314.538 552.828 326.192C552.828 337.845 548.59 417.303 583.552 417.303C611.521 417.303 725.869 421.188 783.784 422.6C792.26 332.901 805.82 149.054 792.26 131.256Z" fill="black"/>
<path d="M552.831 326.185C610.747 314.178 726.578 300.971 726.578 344.196C726.578 387.42 672.9 411.849 646.061 418.659M726.578 98.3068C719.515 101.518 704.542 116.629 701.152 151.379C696.914 194.815 683.311 209.647 672.291 209.647M661.477 211.766C652.454 216.71 632.712 220.454 625.932 195.875C617.457 165.151 599.774 148.2 580.01 153.497M758.361 110.061C756.242 109.165 722.341 132.309 719.162 185.28C715.984 238.252 682.082 337.839 612.159 284.867C585.672 258.381 560.151 241.784 555.865 243.549M634.407 418.339C643.942 409.163 660.47 387.844 650.299 375.979C640.128 364.113 584.497 380.216 557.953 389.751M797.348 158.795C774.464 172.92 732.299 217.911 746.708 284.867C759.421 323.007 782.653 319.122 792.68 312.413M788.847 364.325C775.153 364.505 749.038 376.254 754.124 421.805" stroke="white" stroke-width="0.970341"/>
<path d="M666.188 417.293V239.308" stroke="#027269" stroke-width="0.970341"/>
<path d="M666.823 415.56L661.617 376.847C649.777 378.995 625.119 381.076 606.071 382.881C586.13 384.771 581.105 395.241 594.49 398.585C587.489 397.711 579.65 407.364 590.822 411.686C582.627 414.597 598.836 417.845 606.782 417.861C602.234 418.548 594.349 419.815 595.421 424.634C596.493 429.452 643.469 420.592 666.823 415.56Z" fill="white"/>
<path d="M666.824 415.561L661.617 376.848C658.863 377.348 655.415 377.844 651.505 378.334L639.66 420.952C649.612 419.142 659.409 417.159 666.824 415.561Z" fill="black"/>
<path d="M607.106 418.146L623.579 413.509" stroke="black" stroke-width="0.970341"/>
<path d="M594.596 407.801L623.476 404.295" stroke="black" stroke-width="0.970341"/>
<path d="M594.491 398.584L623.988 393.482" stroke="black" stroke-width="0.970341"/>
<path d="M823.692 381.565C826.255 340.991 829.054 136.522 783.286 125.5C730.382 112.759 731.076 307.755 754.043 352.24L646.016 363.222L656.152 430.623C708.673 426.955 819.449 448.703 823.692 381.565Z" fill="black"/>
<path d="M783.285 125.499C730.382 112.759 731.075 307.754 754.043 352.24L646.015 363.222" stroke="white" stroke-width="0.970341"/>
<path d="M805.322 154.883C788.975 156.661 752.645 166.099 743.733 188.221M815.493 190.481C800.761 196.925 766.271 218.617 761.92 240.885C757.57 263.152 803.646 255.634 822.274 251.505M823.404 290.493C807.92 297.722 753.644 302.52 741.473 285.973M823.968 359.993C808.111 350.37 762.46 331.161 750.514 338.522M707.571 356.603C700.79 371.294 711.409 425.315 741.473 431.189" stroke="white" stroke-width="0.970341"/>
<path d="M360.324 279.458H542.26C545.447 279.458 548.311 281.407 549.481 284.372L603.515 421.342C604.685 424.307 607.548 426.256 610.736 426.256H752.251C754.854 426.256 756.964 428.366 756.964 430.969C756.964 433.573 754.854 435.683 752.251 435.683H416.118C412.935 435.683 410.075 433.74 408.902 430.782L353.107 290.082C351.087 284.986 354.842 279.458 360.324 279.458Z" fill="white" stroke="black" stroke-width="2.91102"/>
<path d="M548.651 282.129L608.502 426.256H604.46C601.326 426.256 598.499 424.371 597.294 421.477L540.65 285.456C539.462 282.603 541.559 279.458 544.65 279.458C546.401 279.458 547.98 280.512 548.651 282.129Z" fill="black"/>
<path d="M408.902 430.782L353.107 290.082C351.087 284.986 354.842 279.458 360.324 279.458H374.352C375.507 279.458 376.643 279.716 377.692 280.199C382.658 282.486 390.954 286.082 404.731 293.043C450.822 316.331 456.644 365.818 446.941 390.077C439.074 409.743 543.053 430.071 583.905 435.683H416.118C412.935 435.683 410.075 433.74 408.902 430.782Z" fill="black"/>
<ellipse cx="11.5736" cy="13.3097" rx="11.5736" ry="13.3097" transform="matrix(-0.936312 0.351169 0.351169 0.936312 477.862 327.975)" fill="black"/>
</g>
<defs>
<clipPath id="clip0_1507_655">
<rect width="889" height="596" fill="white"/>
</clipPath>
</defs>
</svg>
